<mxfile host="app.diagrams.net" modified="2023-05-28T14:24:02.977Z" agent="Mozilla/5.0 (Macintosh; Intel Mac OS X 10_15_7) AppleWebKit/537.36 (KHTML, like Gecko) Chrome/113.0.0.0 Safari/537.36" etag="ZXnhsPN-zIqtqeA01QQS" version="21.3.5" type="github">
  <diagram name="第 1 页" id="C-qv52xKiN5NOCZjkVcx">
    <mxGraphModel dx="1244" dy="566" grid="1" gridSize="10" guides="1" tooltips="1" connect="1" arrows="1" fold="1" page="1" pageScale="1" pageWidth="1169" pageHeight="827" math="0" shadow="0">
      <root>
        <mxCell id="0" />
        <mxCell id="1" parent="0" />
        <mxCell id="QM7McfEDCeYeJ3cg85xL-19" style="edgeStyle=orthogonalEdgeStyle;rounded=0;orthogonalLoop=1;jettySize=auto;html=1;exitX=1;exitY=0.5;exitDx=0;exitDy=0;entryX=0;entryY=0.5;entryDx=0;entryDy=0;" edge="1" parent="1" source="QM7McfEDCeYeJ3cg85xL-2" target="QM7McfEDCeYeJ3cg85xL-4">
          <mxGeometry relative="1" as="geometry" />
        </mxCell>
        <mxCell id="QM7McfEDCeYeJ3cg85xL-2" value="&lt;font style=&quot;font-size: 15px;&quot;&gt;爬虫系统&lt;/font&gt;" style="rounded=1;whiteSpace=wrap;html=1;strokeWidth=2;fillStyle=auto;gradientColor=none;absoluteArcSize=0;perimeterSpacing=0;glass=0;" vertex="1" parent="1">
          <mxGeometry x="370" y="370" width="140" height="50" as="geometry" />
        </mxCell>
        <mxCell id="QM7McfEDCeYeJ3cg85xL-20" style="edgeStyle=orthogonalEdgeStyle;rounded=0;orthogonalLoop=1;jettySize=auto;html=1;exitX=1;exitY=0.5;exitDx=0;exitDy=0;entryX=0;entryY=0.5;entryDx=0;entryDy=0;" edge="1" parent="1" source="QM7McfEDCeYeJ3cg85xL-4" target="QM7McfEDCeYeJ3cg85xL-5">
          <mxGeometry relative="1" as="geometry" />
        </mxCell>
        <mxCell id="QM7McfEDCeYeJ3cg85xL-4" value="&lt;font style=&quot;font-size: 15px;&quot;&gt;构建爬虫框架&lt;/font&gt;" style="rounded=0;whiteSpace=wrap;html=1;strokeWidth=2;" vertex="1" parent="1">
          <mxGeometry x="552" y="370" width="140" height="50" as="geometry" />
        </mxCell>
        <mxCell id="QM7McfEDCeYeJ3cg85xL-24" style="edgeStyle=orthogonalEdgeStyle;rounded=0;orthogonalLoop=1;jettySize=auto;html=1;exitX=0.5;exitY=1;exitDx=0;exitDy=0;entryX=0.5;entryY=0;entryDx=0;entryDy=0;" edge="1" parent="1" source="QM7McfEDCeYeJ3cg85xL-5" target="QM7McfEDCeYeJ3cg85xL-7">
          <mxGeometry relative="1" as="geometry" />
        </mxCell>
        <mxCell id="QM7McfEDCeYeJ3cg85xL-5" value="&lt;span style=&quot;font-size: 15px;&quot;&gt;分析网页结构&lt;/span&gt;" style="rounded=0;whiteSpace=wrap;html=1;strokeWidth=2;" vertex="1" parent="1">
          <mxGeometry x="734" y="370" width="140" height="50" as="geometry" />
        </mxCell>
        <mxCell id="QM7McfEDCeYeJ3cg85xL-25" style="edgeStyle=orthogonalEdgeStyle;rounded=0;orthogonalLoop=1;jettySize=auto;html=1;exitX=0;exitY=0.5;exitDx=0;exitDy=0;entryX=1;entryY=0.5;entryDx=0;entryDy=0;" edge="1" parent="1" source="QM7McfEDCeYeJ3cg85xL-7" target="QM7McfEDCeYeJ3cg85xL-10">
          <mxGeometry relative="1" as="geometry" />
        </mxCell>
        <mxCell id="QM7McfEDCeYeJ3cg85xL-7" value="&lt;span style=&quot;font-size: 15px;&quot;&gt;设计爬虫程序&lt;/span&gt;" style="rounded=0;whiteSpace=wrap;html=1;strokeWidth=2;" vertex="1" parent="1">
          <mxGeometry x="734" y="455" width="140" height="50" as="geometry" />
        </mxCell>
        <mxCell id="QM7McfEDCeYeJ3cg85xL-26" style="edgeStyle=orthogonalEdgeStyle;rounded=0;orthogonalLoop=1;jettySize=auto;html=1;exitX=0;exitY=0.5;exitDx=0;exitDy=0;entryX=1;entryY=0.5;entryDx=0;entryDy=0;" edge="1" parent="1" source="QM7McfEDCeYeJ3cg85xL-10" target="QM7McfEDCeYeJ3cg85xL-17">
          <mxGeometry relative="1" as="geometry" />
        </mxCell>
        <mxCell id="QM7McfEDCeYeJ3cg85xL-10" value="&lt;span style=&quot;font-size: 15px;&quot;&gt;管理与存储数据&lt;/span&gt;" style="rounded=0;whiteSpace=wrap;html=1;strokeWidth=2;" vertex="1" parent="1">
          <mxGeometry x="552" y="455" width="140" height="50" as="geometry" />
        </mxCell>
        <mxCell id="QM7McfEDCeYeJ3cg85xL-17" value="&lt;span style=&quot;font-size: 15px;&quot;&gt;医学领域问答数据集&lt;/span&gt;" style="rounded=1;whiteSpace=wrap;html=1;strokeWidth=2;fillStyle=auto;gradientColor=none;absoluteArcSize=0;perimeterSpacing=0;glass=0;" vertex="1" parent="1">
          <mxGeometry x="370" y="455" width="140" height="50" as="geometry" />
        </mxCell>
      </root>
    </mxGraphModel>
  </diagram>
</mxfile>
